<svg width="1440" height="90" viewBox="0 0 1440 90" fill="none" xmlns="http://www.w3.org/2000/svg">
<rect x="-30" width="3220" height="90" fill="#BCEC30"/>
<rect x="-29.5" y="0.5" width="3219" height="89" stroke="white" stroke-opacity="0.2"/>
<path d="M36.16 43.05C37.44 43.43 38.42 44.05 39.1 44.91C39.78 45.77 40.12 46.83 40.12 48.09C40.12 49.95 39.41 51.4 37.99 52.44C36.59 53.48 34.58 54 31.96 54H21.61V33H31.39C33.83 33 35.73 33.47 37.09 34.41C38.45 35.35 39.13 36.69 39.13 38.43C39.13 39.47 38.87 40.39 38.35 41.19C37.83 41.97 37.1 42.59 36.16 43.05ZM26.44 41.7H30.97C32.03 41.7 32.83 41.49 33.37 41.07C33.91 40.63 34.18 39.99 34.18 39.15C34.18 38.33 33.9 37.7 33.34 37.26C32.8 36.82 32.01 36.6 30.97 36.6H26.44V41.7ZM31.78 50.4C34.06 50.4 35.2 49.5 35.2 47.7C35.2 45.96 34.06 45.09 31.78 45.09H26.44V50.4H31.78ZM45.1635 33H49.9935V46.68L60.0135 33H64.5735V54H59.7735V40.35L49.7535 54H45.1635V33ZM79.1322 45.54H75.7722V54H70.9422V33H75.7722V41.49H79.2522L84.7722 33H89.9022L83.0322 43.14L90.1122 54H84.5922L79.1322 45.54ZM109.405 36.96H102.685V54H97.8845V36.96H91.1945V33H109.405V36.96ZM123.383 54.36C121.203 54.36 119.233 53.89 117.473 52.95C115.733 52.01 114.363 50.72 113.363 49.08C112.383 47.42 111.893 45.56 111.893 43.5C111.893 41.44 112.383 39.59 113.363 37.95C114.363 36.29 115.733 34.99 117.473 34.05C119.233 33.11 121.203 32.64 123.383 32.64C125.563 32.64 127.523 33.11 129.263 34.05C131.003 34.99 132.373 36.29 133.373 37.95C134.373 39.59 134.873 41.44 134.873 43.5C134.873 45.56 134.373 47.42 133.373 49.08C132.373 50.72 131.003 52.01 129.263 52.95C127.523 53.89 125.563 54.36 123.383 54.36ZM123.383 50.22C124.623 50.22 125.743 49.94 126.743 49.38C127.743 48.8 128.523 48 129.083 46.98C129.663 45.96 129.953 44.8 129.953 43.5C129.953 42.2 129.663 41.04 129.083 40.02C128.523 39 127.743 38.21 126.743 37.65C125.743 37.07 124.623 36.78 123.383 36.78C122.143 36.78 121.023 37.07 120.023 37.65C119.023 38.21 118.233 39 117.653 40.02C117.093 41.04 116.813 42.2 116.813 43.5C116.813 44.8 117.093 45.96 117.653 46.98C118.233 48 119.023 48.8 120.023 49.38C121.023 49.94 122.143 50.22 123.383 50.22ZM148.907 33C150.767 33 152.377 33.31 153.737 33.93C155.117 34.55 156.177 35.43 156.917 36.57C157.657 37.71 158.027 39.06 158.027 40.62C158.027 42.16 157.657 43.51 156.917 44.67C156.177 45.81 155.117 46.69 153.737 47.31C152.377 47.91 150.767 48.21 148.907 48.21H144.677V54H139.817V33H148.907ZM148.637 44.25C150.097 44.25 151.207 43.94 151.967 43.32C152.727 42.68 153.107 41.78 153.107 40.62C153.107 39.44 152.727 38.54 151.967 37.92C151.207 37.28 150.097 36.96 148.637 36.96H144.677V44.25H148.637ZM162.433 33H167.263V46.68L177.283 33H181.843V54H177.043V40.35L167.023 54H162.433V33ZM207.532 33V54H202.672V45.39H193.132V54H188.272V33H193.132V41.28H202.672V33H207.532ZM228.213 49.5H218.463L216.603 54H211.623L220.983 33H225.783L235.173 54H230.073L228.213 49.5ZM226.683 45.81L223.353 37.77L220.023 45.81H226.683Z" fill="#202027"/>
<path d="M305 27L309.862 40.1384L323 45L309.862 49.8616L305 63L300.138 49.8616L287 45L300.138 40.1384L305 27Z" fill="#202027"/>
<path d="M395.57 33L386.63 49.62C385.77 51.22 384.73 52.43 383.51 53.25C382.31 54.07 381 54.48 379.58 54.48C378.48 54.48 377.34 54.24 376.16 53.76L377.33 50.07C378.17 50.33 378.87 50.46 379.43 50.46C380.03 50.46 380.57 50.32 381.05 50.04C381.53 49.74 381.97 49.28 382.37 48.66L382.55 48.42L374.27 33H379.46L385.04 44.28L390.8 33H395.57ZM413.87 36.96H403.88L403.91 54H399.08V33H413.9L413.87 36.96ZM428.21 49.5H418.46L416.6 54H411.62L420.98 33H425.78L435.17 54H430.07L428.21 49.5ZM426.68 45.81L423.35 37.77L420.02 45.81H426.68ZM460.991 50.04V58.35H456.491V54H441.671V58.35H437.171L437.201 50.04H438.041C439.301 50 440.191 49.08 440.711 47.28C441.231 45.48 441.551 42.91 441.671 39.57L441.911 33H458.051V50.04H460.991ZM445.961 40.02C445.861 42.52 445.651 44.62 445.331 46.32C445.011 48 444.521 49.24 443.861 50.04H453.251V36.96H446.051L445.961 40.02ZM479.859 49.5H470.109L468.249 54H463.269L472.629 33H477.429L486.819 54H481.719L479.859 49.5ZM478.329 45.81L474.999 37.77L471.669 45.81H478.329ZM490.803 33H495.633V46.68L505.653 33H510.213V54H505.413V40.35L495.393 54H490.803V33ZM500.493 31.65C496.653 31.65 494.713 30.12 494.673 27.06H498.003C498.043 28.52 498.873 29.25 500.493 29.25C501.293 29.25 501.903 29.07 502.323 28.71C502.743 28.33 502.963 27.78 502.983 27.06H506.313C506.293 28.56 505.803 29.7 504.843 30.48C503.883 31.26 502.433 31.65 500.493 31.65ZM543.588 33V54H538.788V46.44C536.968 47.1 535.278 47.43 533.718 47.43C530.898 47.43 528.738 46.76 527.238 45.42C525.738 44.06 524.988 42.11 524.988 39.57V33H529.788V39.03C529.788 40.47 530.168 41.56 530.928 42.3C531.708 43.02 532.828 43.38 534.288 43.38C535.888 43.38 537.388 43.07 538.788 42.45V33H543.588ZM550.009 33H554.839V46.68L564.859 33H569.419V54H564.619V40.35L554.599 54H550.009V33ZM585.777 54.36C583.637 54.36 581.697 53.9 579.957 52.98C578.237 52.04 576.877 50.75 575.877 49.11C574.897 47.45 574.407 45.58 574.407 43.5C574.407 41.42 574.897 39.56 575.877 37.92C576.877 36.26 578.237 34.97 579.957 34.05C581.697 33.11 583.647 32.64 585.807 32.64C587.627 32.64 589.267 32.96 590.727 33.6C592.207 34.24 593.447 35.16 594.447 36.36L591.327 39.24C589.907 37.6 588.147 36.78 586.047 36.78C584.747 36.78 583.587 37.07 582.567 37.65C581.547 38.21 580.747 39 580.167 40.02C579.607 41.04 579.327 42.2 579.327 43.5C579.327 44.8 579.607 45.96 580.167 46.98C580.747 48 581.547 48.8 582.567 49.38C583.587 49.94 584.747 50.22 586.047 50.22C588.147 50.22 589.907 49.39 591.327 47.73L594.447 50.61C593.447 51.83 592.207 52.76 590.727 53.4C589.247 54.04 587.597 54.36 585.777 54.36ZM617.037 33V54H612.237V36.96H605.037L604.887 41.34C604.787 44.32 604.547 46.74 604.167 48.6C603.787 50.44 603.147 51.86 602.247 52.86C601.367 53.84 600.127 54.33 598.527 54.33C597.867 54.33 597.067 54.22 596.127 54L596.427 49.89C596.687 49.97 596.977 50.01 597.297 50.01C598.457 50.01 599.267 49.33 599.727 47.97C600.187 46.59 600.477 44.44 600.597 41.52L600.897 33H617.037ZM633.502 54.36C631.322 54.36 629.352 53.89 627.592 52.95C625.852 52.01 624.482 50.72 623.482 49.08C622.502 47.42 622.012 45.56 622.012 43.5C622.012 41.44 622.502 39.59 623.482 37.95C624.482 36.29 625.852 34.99 627.592 34.05C629.352 33.11 631.322 32.64 633.502 32.64C635.682 32.64 637.642 33.11 639.382 34.05C641.122 34.99 642.492 36.29 643.492 37.95C644.492 39.59 644.992 41.44 644.992 43.5C644.992 45.56 644.492 47.42 643.492 49.08C642.492 50.72 641.122 52.01 639.382 52.95C637.642 53.89 635.682 54.36 633.502 54.36ZM633.502 50.22C634.742 50.22 635.862 49.94 636.862 49.38C637.862 48.8 638.642 48 639.202 46.98C639.782 45.96 640.072 44.8 640.072 43.5C640.072 42.2 639.782 41.04 639.202 40.02C638.642 39 637.862 38.21 636.862 37.65C635.862 37.07 634.742 36.78 633.502 36.78C632.262 36.78 631.142 37.07 630.142 37.65C629.142 38.21 628.352 39 627.772 40.02C627.212 41.04 626.932 42.2 626.932 43.5C626.932 44.8 627.212 45.96 627.772 46.98C628.352 48 629.142 48.8 630.142 49.38C631.142 49.94 632.262 50.22 633.502 50.22Z" fill="#202027"/>
<path d="M716 27L720.862 40.1384L734 45L720.862 49.8616L716 63L711.138 49.8616L698 45L711.138 40.1384L716 27Z" fill="#202027"/>
<path d="M806.75 33V54H801.92V36.96H792.44V54H787.61V33H806.75ZM829.416 50.1V54H813.156V33H829.026V36.9H817.986V41.46H827.736V45.24H817.986V50.1H829.416ZM843.631 33C845.491 33 847.101 33.31 848.461 33.93C849.841 34.55 850.901 35.43 851.641 36.57C852.381 37.71 852.751 39.06 852.751 40.62C852.751 42.16 852.381 43.51 851.641 44.67C850.901 45.81 849.841 46.69 848.461 47.31C847.101 47.91 845.491 48.21 843.631 48.21H839.401V54H834.541V33H843.631ZM843.361 44.25C844.821 44.25 845.931 43.94 846.691 43.32C847.451 42.68 847.831 41.78 847.831 40.62C847.831 39.44 847.451 38.54 846.691 37.92C845.931 37.28 844.821 36.96 843.361 36.96H839.401V44.25H843.361ZM873.417 50.1V54H857.157V33H873.027V36.9H861.987V41.46H871.737V45.24H861.987V50.1H873.417ZM893.093 43.05C894.373 43.43 895.353 44.05 896.033 44.91C896.713 45.77 897.053 46.83 897.053 48.09C897.053 49.95 896.343 51.4 894.923 52.44C893.523 53.48 891.513 54 888.893 54H878.543V33H888.323C890.763 33 892.663 33.47 894.023 34.41C895.383 35.35 896.063 36.69 896.063 38.43C896.063 39.47 895.803 40.39 895.283 41.19C894.763 41.97 894.033 42.59 893.093 43.05ZM883.373 41.7H887.903C888.963 41.7 889.763 41.49 890.303 41.07C890.843 40.63 891.113 39.99 891.113 39.15C891.113 38.33 890.833 37.7 890.273 37.26C889.733 36.82 888.943 36.6 887.903 36.6H883.373V41.7ZM888.713 50.4C890.993 50.4 892.133 49.5 892.133 47.7C892.133 45.96 890.993 45.09 888.713 45.09H883.373V50.4H888.713ZM918.356 50.1V54H902.096V33H917.966V36.9H906.926V41.46H916.676V45.24H906.926V50.1H918.356ZM932.572 33C934.432 33 936.042 33.31 937.402 33.93C938.782 34.55 939.842 35.43 940.582 36.57C941.322 37.71 941.692 39.06 941.692 40.62C941.692 42.16 941.322 43.51 940.582 44.67C939.842 45.81 938.782 46.69 937.402 47.31C936.042 47.91 934.432 48.21 932.572 48.21H928.342V54H923.482V33H932.572ZM932.302 44.25C933.762 44.25 934.872 43.94 935.632 43.32C936.392 42.68 936.772 41.78 936.772 40.62C936.772 39.44 936.392 38.54 935.632 37.92C934.872 37.28 933.762 36.96 932.302 36.96H928.342V44.25H932.302ZM965.358 33V54H960.498V45.39H950.958V54H946.098V33H950.958V41.28H960.498V33H965.358ZM971.819 33H976.649V46.68L986.669 33H991.229V54H986.429V40.35L976.409 54H971.819V33ZM1023.4 36.96H1016.68V54H1011.88V36.96H1005.19V33H1023.4V36.96ZM1043.92 50.1V54H1027.66V33H1043.53V36.9H1032.49V41.46H1042.24V45.24H1032.49V50.1H1043.92ZM1057.17 45.54H1053.81V54H1048.98V33H1053.81V41.49H1057.29L1062.81 33H1067.94L1061.07 43.14L1068.15 54H1062.63L1057.17 45.54ZM1081.47 54.36C1079.33 54.36 1077.39 53.9 1075.65 52.98C1073.93 52.04 1072.57 50.75 1071.57 49.11C1070.59 47.45 1070.1 45.58 1070.1 43.5C1070.1 41.42 1070.59 39.56 1071.57 37.92C1072.57 36.26 1073.93 34.97 1075.65 34.05C1077.39 33.11 1079.34 32.64 1081.5 32.64C1083.32 32.64 1084.96 32.96 1086.42 33.6C1087.9 34.24 1089.14 35.16 1090.14 36.36L1087.02 39.24C1085.6 37.6 1083.84 36.78 1081.74 36.78C1080.44 36.78 1079.28 37.07 1078.26 37.65C1077.24 38.21 1076.44 39 1075.86 40.02C1075.3 41.04 1075.02 42.2 1075.02 43.5C1075.02 44.8 1075.3 45.96 1075.86 46.98C1076.44 48 1077.24 48.8 1078.26 49.38C1079.28 49.94 1080.44 50.22 1081.74 50.22C1083.84 50.22 1085.6 49.39 1087.02 47.73L1090.14 50.61C1089.14 51.83 1087.9 52.76 1086.42 53.4C1084.94 54.04 1083.29 54.36 1081.47 54.36ZM1110.35 36.96H1103.63V54H1098.83V36.96H1092.14V33H1110.35V36.96Z" fill="#202027"/>
<path d="M1180 27L1184.86 40.1384L1198 45L1184.86 49.8616L1180 63L1175.14 49.8616L1162 45L1175.14 40.1384L1180 27Z" fill="#202027"/>
<path d="M1270.75 33V54H1265.92V36.96H1256.44V54H1251.61V33H1270.75ZM1286.25 33C1288.11 33 1289.72 33.31 1291.08 33.93C1292.46 34.55 1293.52 35.43 1294.26 36.57C1295 37.71 1295.37 39.06 1295.37 40.62C1295.37 42.16 1295 43.51 1294.26 44.67C1293.52 45.81 1292.46 46.69 1291.08 47.31C1289.72 47.91 1288.11 48.21 1286.25 48.21H1282.02V54H1277.16V33H1286.25ZM1285.98 44.25C1287.44 44.25 1288.55 43.94 1289.31 43.32C1290.07 42.68 1290.45 41.78 1290.45 40.62C1290.45 39.44 1290.07 38.54 1289.31 37.92C1288.55 37.28 1287.44 36.96 1285.98 36.96H1282.02V44.25H1285.98ZM1310.08 54.36C1307.9 54.36 1305.93 53.89 1304.17 52.95C1302.43 52.01 1301.06 50.72 1300.06 49.08C1299.08 47.42 1298.59 45.56 1298.59 43.5C1298.59 41.44 1299.08 39.59 1300.06 37.95C1301.06 36.29 1302.43 34.99 1304.17 34.05C1305.93 33.11 1307.9 32.64 1310.08 32.64C1312.26 32.64 1314.22 33.11 1315.96 34.05C1317.7 34.99 1319.07 36.29 1320.07 37.95C1321.07 39.59 1321.57 41.44 1321.57 43.5C1321.57 45.56 1321.07 47.42 1320.07 49.08C1319.07 50.72 1317.7 52.01 1315.96 52.95C1314.22 53.89 1312.26 54.36 1310.08 54.36ZM1310.08 50.22C1311.32 50.22 1312.44 49.94 1313.44 49.38C1314.44 48.8 1315.22 48 1315.78 46.98C1316.36 45.96 1316.65 44.8 1316.65 43.5C1316.65 42.2 1316.36 41.04 1315.78 40.02C1315.22 39 1314.44 38.21 1313.44 37.65C1312.44 37.07 1311.32 36.78 1310.08 36.78C1308.84 36.78 1307.72 37.07 1306.72 37.65C1305.72 38.21 1304.93 39 1304.35 40.02C1303.79 41.04 1303.51 42.2 1303.51 43.5C1303.51 44.8 1303.79 45.96 1304.35 46.98C1304.93 48 1305.72 48.8 1306.72 49.38C1307.72 49.94 1308.84 50.22 1310.08 50.22ZM1336.45 54.36C1334.31 54.36 1332.37 53.9 1330.63 52.98C1328.91 52.04 1327.55 50.75 1326.55 49.11C1325.57 47.45 1325.08 45.58 1325.08 43.5C1325.08 41.42 1325.57 39.56 1326.55 37.92C1327.55 36.26 1328.91 34.97 1330.63 34.05C1332.37 33.11 1334.32 32.64 1336.48 32.64C1338.3 32.64 1339.94 32.96 1341.4 33.6C1342.88 34.24 1344.12 35.16 1345.12 36.36L1342 39.24C1340.58 37.6 1338.82 36.78 1336.72 36.78C1335.42 36.78 1334.26 37.07 1333.24 37.65C1332.22 38.21 1331.42 39 1330.84 40.02C1330.28 41.04 1330 42.2 1330 43.5C1330 44.8 1330.28 45.96 1330.84 46.98C1331.42 48 1332.22 48.8 1333.24 49.38C1334.26 49.94 1335.42 50.22 1336.72 50.22C1338.82 50.22 1340.58 49.39 1342 47.73L1345.12 50.61C1344.12 51.83 1342.88 52.76 1341.4 53.4C1339.92 54.04 1338.27 54.36 1336.45 54.36ZM1365.33 36.96H1358.61V54H1353.81V36.96H1347.12V33H1365.33V36.96ZM1382.75 49.5H1373L1371.14 54H1366.16L1375.52 33H1380.32L1389.71 54H1384.61L1382.75 49.5ZM1381.22 45.81L1377.89 37.77L1374.56 45.81H1381.22ZM1409.38 33V54H1404.58V48.42H1400.14L1396.42 54H1391.29L1395.67 47.67C1394.25 47.09 1393.16 46.22 1392.4 45.06C1391.64 43.88 1391.26 42.47 1391.26 40.83C1391.26 39.21 1391.63 37.82 1392.37 36.66C1393.11 35.48 1394.16 34.58 1395.52 33.96C1396.88 33.32 1398.48 33 1400.32 33H1409.38ZM1400.44 36.96C1399.06 36.96 1398 37.28 1397.26 37.92C1396.54 38.56 1396.18 39.51 1396.18 40.77C1396.18 41.99 1396.53 42.93 1397.23 43.59C1397.93 44.25 1398.96 44.58 1400.32 44.58H1404.58V36.96H1400.44ZM1439.76 49.5H1430.01L1428.15 54H1423.17L1432.53 33H1437.33L1446.72 54H1441.62L1439.76 49.5ZM1438.23 45.81L1434.9 37.77L1431.57 45.81H1438.23ZM1459.79 33C1461.65 33 1463.26 33.31 1464.62 33.93C1466 34.55 1467.06 35.43 1467.8 36.57C1468.54 37.71 1468.91 39.06 1468.91 40.62C1468.91 42.16 1468.54 43.51 1467.8 44.67C1467.06 45.81 1466 46.69 1464.62 47.31C1463.26 47.91 1461.65 48.21 1459.79 48.21H1455.56V54H1450.7V33H1459.79ZM1459.52 44.25C1460.98 44.25 1462.09 43.94 1462.85 43.32C1463.61 42.68 1463.99 41.78 1463.99 40.62C1463.99 39.44 1463.61 38.54 1462.85 37.92C1462.09 37.28 1460.98 36.96 1459.52 36.96H1455.56V44.25H1459.52ZM1473.32 33H1478.15V46.68L1488.17 33H1492.73V54H1487.93V40.35L1477.91 54H1473.32V33ZM1524.03 43.44C1524.03 46.22 1523.08 48.41 1521.18 50.01C1519.3 51.59 1516.59 52.47 1513.05 52.65V54.93H1508.58V52.62C1505.02 52.42 1502.29 51.53 1500.39 49.95C1498.51 48.35 1497.57 46.18 1497.57 43.44C1497.57 40.68 1498.51 38.52 1500.39 36.96C1502.29 35.38 1505.02 34.48 1508.58 34.26V32.1H1513.05V34.23C1516.59 34.43 1519.3 35.33 1521.18 36.93C1523.08 38.53 1524.03 40.7 1524.03 43.44ZM1513.05 48.84C1515.17 48.64 1516.75 48.1 1517.79 47.22C1518.83 46.32 1519.35 45.05 1519.35 43.41C1519.35 40.21 1517.25 38.43 1513.05 38.07V48.84ZM1502.28 43.44C1502.28 46.6 1504.38 48.4 1508.58 48.84V38.07C1506.44 38.27 1504.85 38.81 1503.81 39.69C1502.79 40.55 1502.28 41.8 1502.28 43.44ZM1547.97 54L1547.94 41.43L1541.76 51.78H1539.6L1533.42 41.67V54H1528.86V33H1532.88L1540.74 46.05L1548.48 33H1552.5L1552.53 54H1547.97ZM1575.21 50.1V54H1558.95V33H1574.82V36.9H1563.78V41.46H1573.53V45.24H1563.78V50.1H1575.21ZM1596.38 36.96H1589.66V54H1584.86V36.96H1578.17V33H1596.38V36.96ZM1600.64 33H1605.47V46.68L1615.49 33H1620.05V54H1615.25V40.35L1605.23 54H1600.64V33ZM1634.6 45.54H1631.24V54H1626.41V33H1631.24V41.49H1634.72L1640.24 33H1645.37L1638.5 43.14L1645.58 54H1640.06L1634.6 45.54ZM1662.87 49.5H1653.12L1651.26 54H1646.28L1655.64 33H1660.44L1669.83 54H1664.73L1662.87 49.5ZM1661.34 45.81L1658.01 37.77L1654.68 45.81H1661.34Z" fill="#202027"/>
</svg>
